<svg width="80" height="80" viewBox="0 0 80 80" fill="none" xmlns="http://www.w3.org/2000/svg">
<g clip-path="url(#clip0_11_15)">
<path fill-rule="evenodd" clip-rule="evenodd" d="M40 -2.38419e-06C50.6087 -2.38419e-06 60.7828 4.21427 68.2843 11.7157C75.7857 19.2172 80 29.3913 80 40C80 50.6087 75.7857 60.7828 68.2843 68.2843C60.7828 75.7857 50.6087 80 40 80C29.3913 80 19.2172 75.7857 11.7157 68.2843C4.21427 60.7828 -2.38419e-06 50.6087 -2.38419e-06 40C-2.38419e-06 29.3913 4.21427 19.2172 11.7157 11.7157C19.2172 4.21427 29.3913 -2.38419e-06 40 -2.38419e-06ZM54.4373 45.3333L40 59.7707L25.5627 45.3333L29.3333 41.5627L37.3333 49.5627V21.3333H42.6667V49.5627L50.6667 41.5627L54.4373 45.3333Z" fill="#5F1515"/>
</g>
<defs>
<clipPath id="clip0_11_15">
<rect width="80" height="80" fill="white" transform="matrix(-1 0 0 -1 80 80)"/>
</clipPath>
</defs>
</svg>
